# xmcd
#
# Track frame offsets:
#	150
#	22218
#	41800
#	55310
#	75809
#	94496
#	124642
#	137286
#	158289
#	179744
#	198003
#	227067
#
# Disc length: 3320 seconds
#
# Revision: 1
# Processed by: cddbd v1.5.2PL0 Copyright (c) Steve Scherf et al.
# Submitted via: EZCDAudioConverter 8.0.2.1
#
DISCID=920cf60c
DTITLE=Don Hồ, Ngọc Huệ - Hoài Niệm Dấu Yêu
DYEAR=2002
DGENRE=World Pop
TTITLE0=Don Hồ - Cuộc đời éo le
TTITLE1=Don Hồ, Ngọc Huệ - Hoài Niệm Dấu Yêu
TTITLE2=Ngọc Huệ - Co bé lọ lem
TTITLE3=Don Hồ, Ngọc Huệ - Vòng tay nữ sinh
TTITLE4=Don Hồ, Ngọc Huệ - Yêu lại từ đầu
TTITLE5=Ngọc Huệ - Biển khát
TTITLE6=Don Hồ, Ngọc Huệ - Vường địa đàng
TTITLE7=Don Hồ - Tình buồn chinh chiến
TTITLE8=Don Hồ, Ngọc Huệ - Nếu không còn em
TTITLE9=Ngọc Huệ - Tình đã bay xa
TTITLE10=Don Hồ - Chị tôi
TTITLE11=Soundtrack - Cuộc đời éo le
EXTD=
EXTT0=
EXTT1=
EXTT2=
EXTT3=
EXTT4=
EXTT5=
EXTT6=
EXTT7=
EXTT8=
EXTT9=
EXTT10=
EXTT11=
PLAYORDER=
